<svg width="160" height="107" viewBox="0 0 160 107" fill="none" xmlns="http://www.w3.org/2000/svg">
<g filter="url(#filter0_d_5525_806)">
<path d="M3.52734 106.22C1.87049 106.22 0.522946 104.876 0.569441 103.22C1.06917 85.419 6.00977 68.0184 14.9513 52.6521C24.3945 36.4236 37.9551 23.057 54.2221 13.9432C70.4891 4.82937 88.8682 0.301357 107.447 0.830276C125.005 1.33015 142.705 7.71332 157.881 16.8752C159.326 17.7481 159.719 19.6549 158.773 21.054L142.906 44.5233C141.996 45.8695 140.183 46.24 138.777 45.4258C128.929 39.724 117.832 36.5608 106.466 36.2372C94.1291 35.886 81.9247 38.8928 71.1228 44.9447C60.3209 50.9966 51.3162 59.8725 45.0455 70.6488C39.2768 80.5626 36.0159 91.7515 35.5309 103.22C35.4609 104.876 34.1244 106.22 32.4675 106.22H3.52734Z" fill="#7466F1"/>
</g>
<defs>
<filter id="filter0_d_5525_806" x="0.568359" y="0.789062" width="158.72" height="105.431" filterUnits="userSpaceOnUse" color-interpolation-filters="sRGB">
<feFlood flood-opacity="0" result="BackgroundImageFix"/>
<feColorMatrix in="SourceAlpha" type="matrix" values="0 0 0 0 0 0 0 0 0 0 0 0 0 0 0 0 0 0 127 0" result="hardAlpha"/>
<feOffset/>
<feComposite in2="hardAlpha" operator="out"/>
<feColorMatrix type="matrix" values="0 0 0 0 1 0 0 0 0 1 0 0 0 0 1 0 0 0 0.01 0"/>
<feBlend mode="normal" in2="BackgroundImageFix" result="effect1_dropShadow_5525_806"/>
<feBlend mode="normal" in="SourceGraphic" in2="effect1_dropShadow_5525_806" result="shape"/>
</filter>
</defs>
</svg>
