<svg width="57" height="64" viewBox="0 0 57 64" fill="none" xmlns="http://www.w3.org/2000/svg">
<g filter="url(#filter0_d_5535_653)">
<path d="M25.5 8.5C25.5 6.29086 27.3002 4.47019 29.486 4.7904C32.8 5.27589 36.009 6.36447 38.95 8.01361C43.0585 10.3174 46.5063 13.6378 48.9631 17.6566C51.4199 21.6754 52.8032 26.2579 52.9805 30.9648C53.1578 35.6717 52.1232 40.3453 49.9757 44.5376C47.8282 48.7298 44.64 52.3002 40.7165 54.9065C36.793 57.5128 32.2658 59.0677 27.5689 59.4221C22.872 59.7764 18.1628 58.9184 13.8927 56.9303C10.8359 55.5071 8.0775 53.5389 5.74713 51.1331C4.21012 49.5463 4.63587 47.0216 6.42869 45.7308L7.93672 44.6451C9.72953 43.3543 12.2058 43.8058 13.8666 45.2626C15.1205 46.3625 16.5293 47.2835 18.0537 47.9933C20.793 49.2687 23.8141 49.8191 26.8272 49.5918C29.8404 49.3644 32.7447 48.367 35.2617 46.695C37.7786 45.023 39.824 42.7325 41.2016 40.0431C42.5793 37.3537 43.243 34.3555 43.1293 31.3359C43.0155 28.3163 42.1281 25.3766 40.552 22.7984C38.976 20.2203 36.7641 18.0902 34.1284 16.6123C32.6618 15.7898 31.0912 15.1847 29.4659 14.8098C27.3133 14.3131 25.5 12.5674 25.5 10.3582L25.5 8.5Z" fill="#7466F1"/>
</g>
<defs>
<filter id="filter0_d_5535_653" x="0.805176" y="0.753906" width="56.1948" height="62.7461" filterUnits="userSpaceOnUse" color-interpolation-filters="sRGB">
<feFlood flood-opacity="0" result="BackgroundImageFix"/>
<feColorMatrix in="SourceAlpha" type="matrix" values="0 0 0 0 0 0 0 0 0 0 0 0 0 0 0 0 0 0 127 0" result="hardAlpha"/>
<feMorphology radius="4" operator="dilate" in="SourceAlpha" result="effect1_dropShadow_5535_653"/>
<feOffset/>
<feComposite in2="hardAlpha" operator="out"/>
<feColorMatrix type="matrix" values="0 0 0 0 1 0 0 0 0 1 0 0 0 0 1 0 0 0 0.01 0"/>
<feBlend mode="normal" in2="BackgroundImageFix" result="effect1_dropShadow_5535_653"/>
<feBlend mode="normal" in="SourceGraphic" in2="effect1_dropShadow_5535_653" result="shape"/>
</filter>
</defs>
</svg>
