<svg width="169" height="170" viewBox="0 0 169 170" fill="none" xmlns="http://www.w3.org/2000/svg">
<g filter="url(#filter0_d_5525_814)">
<path d="M84 4C99.3319 4 114.349 8.3514 127.306 16.5484C140.262 24.7454 150.627 36.4514 157.194 50.3057C163.761 64.16 166.261 79.5936 164.403 94.8125C162.546 110.032 156.408 124.411 146.701 136.279C136.995 148.147 124.12 157.017 109.572 161.858C95.0241 166.698 79.4013 167.31 64.5194 163.623C49.6375 159.935 36.1078 152.1 25.5028 141.027C14.8977 129.955 7.65301 116.1 4.61069 101.073L84 85L84 4Z" fill="#69CDF8"/>
</g>
<defs>
<filter id="filter0_d_5525_814" x="0.61084" y="0" width="168.389" height="170" filterUnits="userSpaceOnUse" color-interpolation-filters="sRGB">
<feFlood flood-opacity="0" result="BackgroundImageFix"/>
<feColorMatrix in="SourceAlpha" type="matrix" values="0 0 0 0 0 0 0 0 0 0 0 0 0 0 0 0 0 0 127 0" result="hardAlpha"/>
<feMorphology radius="4" operator="dilate" in="SourceAlpha" result="effect1_dropShadow_5525_814"/>
<feOffset/>
<feComposite in2="hardAlpha" operator="out"/>
<feColorMatrix type="matrix" values="0 0 0 0 1 0 0 0 0 1 0 0 0 0 1 0 0 0 0.01 0"/>
<feBlend mode="normal" in2="BackgroundImageFix" result="effect1_dropShadow_5525_814"/>
<feBlend mode="normal" in="SourceGraphic" in2="effect1_dropShadow_5525_814" result="shape"/>
</filter>
</defs>
</svg>
