<svg width="64" height="84" viewBox="0 0 64 84" fill="none" xmlns="http://www.w3.org/2000/svg">
<g filter="url(#filter0_d_5525_807)">
<path d="M17.2473 1.55011C18.2063 0.15476 20.1317 -0.173893 21.47 0.863309C33.6875 10.3323 44.5472 22.5851 51.6077 36.1855C58.6707 49.7908 62.6753 64.7196 63.3562 79.9233C63.431 81.5939 62.0805 82.9648 60.4083 82.969L31.1596 83.0412C29.5181 83.0453 28.185 81.7285 28.0892 80.0898C27.5184 70.3196 24.8806 60.741 20.3364 51.9876C15.7803 43.2113 9.42208 35.4847 1.6924 29.3102C0.426024 28.2986 0.112612 26.4803 1.03066 25.1446L17.2473 1.55011Z" fill="#FFAC60"/>
</g>
<defs>
<filter id="filter0_d_5525_807" x="0.501953" y="0.254883" width="62.8574" height="82.7861" filterUnits="userSpaceOnUse" color-interpolation-filters="sRGB">
<feFlood flood-opacity="0" result="BackgroundImageFix"/>
<feColorMatrix in="SourceAlpha" type="matrix" values="0 0 0 0 0 0 0 0 0 0 0 0 0 0 0 0 0 0 127 0" result="hardAlpha"/>
<feOffset/>
<feComposite in2="hardAlpha" operator="out"/>
<feColorMatrix type="matrix" values="0 0 0 0 1 0 0 0 0 1 0 0 0 0 1 0 0 0 0.01 0"/>
<feBlend mode="normal" in2="BackgroundImageFix" result="effect1_dropShadow_5525_807"/>
<feBlend mode="normal" in="SourceGraphic" in2="effect1_dropShadow_5525_807" result="shape"/>
</filter>
</defs>
</svg>
