<svg width="47" height="37" viewBox="0 0 47 37" fill="none" xmlns="http://www.w3.org/2000/svg">
<path d="M13.7369 13.71L15.7472 14.3801C15.7472 -1.7016 33.8401 -0.3614 32.8349 13.3756L35.18 13.0399C35.18 -4.38273 12.732 -2.70674 13.7369 13.71Z" fill="#7466F1"/>
<path d="M43.5564 29.8197C45.9018 27.4744 46.1252 21.0823 46.2368 17.7318C42.2162 25.129 31.4947 19.0981 26.804 22.4486C30.2885 32.098 39.4242 31.2716 43.5564 29.8197Z" fill="#FFAC60"/>
<path d="M20.103 16.7528L22.7834 18.7631C34.8452 22.1136 48.2471 20.7472 46.5719 9.02051C43.8915 14.7163 26.804 11.392 20.103 16.7528Z" fill="#FFAC60"/>
<path d="M0 16.7293C9.04632 19.7447 -2.01029 38.8425 22.1132 34.4869C11.3917 29.4611 10.3865 16.7293 0 16.7293Z" fill="#7466F1"/>
<path d="M0.670098 12.0386C12.7319 13.7138 23.1184 50.9042 43.5563 29.7962C29.1492 32.1393 22.1132 8.01525 0.670098 12.0386Z" fill="#7466F1"/>
</svg>
