<svg width="84" height="17" viewBox="0 0 84 17" fill="none" xmlns="http://www.w3.org/2000/svg">
<path d="M11.9376 10.331C11.7434 10.5291 11.6541 10.8157 11.6984 11.0967L12.365 14.9806C12.4213 15.3098 12.2893 15.643 12.0276 15.8332C11.7711 16.0306 11.4299 16.0543 11.1502 15.8964L7.82888 14.0728C7.7134 14.0081 7.58517 13.9733 7.45393 13.9694H7.25071C7.18022 13.9804 7.11123 14.0041 7.04824 14.0404L3.72617 15.8727C3.56194 15.9595 3.37597 15.9903 3.19374 15.9595C2.7498 15.8711 2.45359 15.4259 2.52633 14.9562L3.19374 11.0722C3.23798 10.7888 3.14875 10.5007 2.95452 10.2994L0.246625 7.53641C0.0201542 7.3051 -0.0585855 6.95776 0.044901 6.64436C0.145388 6.33175 0.401854 6.10361 0.711564 6.05229L4.43858 5.48312C4.72204 5.45233 4.97101 5.27077 5.09849 5.00236L6.74078 1.45786C6.77977 1.37892 6.83001 1.3063 6.89076 1.24472L6.95825 1.18946C6.99349 1.14841 7.03399 1.11447 7.07898 1.08684L7.16072 1.05526L7.2882 1H7.60391C7.88588 1.03079 8.13409 1.20841 8.26383 1.47365L9.92786 5.00236C10.0478 5.2605 10.2811 5.4397 10.5503 5.48312L14.2773 6.05229C14.5923 6.09966 14.8555 6.32859 14.9597 6.64436C15.0579 6.96092 14.9732 7.30826 14.7422 7.53641L11.9376 10.331Z" fill="#FFAC60"/>
<path d="M28.9376 10.331C28.7434 10.5291 28.6541 10.8157 28.6984 11.0967L29.365 14.9806C29.4213 15.3098 29.2893 15.643 29.0276 15.8332C28.7711 16.0306 28.4299 16.0543 28.1502 15.8964L24.8289 14.0728C24.7134 14.0081 24.5852 13.9733 24.4539 13.9694H24.2507C24.1802 13.9804 24.1112 14.0041 24.0482 14.0404L20.7262 15.8727C20.5619 15.9595 20.376 15.9903 20.1937 15.9595C19.7498 15.8711 19.4536 15.4259 19.5263 14.9562L20.1937 11.0722C20.238 10.7888 20.1487 10.5007 19.9545 10.2994L17.2466 7.53641C17.0202 7.30511 16.9414 6.95776 17.0449 6.64436C17.1454 6.33175 17.4019 6.10361 17.7116 6.05229L21.4386 5.48312C21.722 5.45233 21.971 5.27077 22.0985 5.00236L23.7408 1.45786C23.7798 1.37892 23.83 1.3063 23.8908 1.24472L23.9582 1.18946C23.9935 1.14841 24.034 1.11447 24.079 1.08684L24.1607 1.05526L24.2882 1H24.6039C24.8859 1.03079 25.1341 1.20841 25.2638 1.47365L26.9279 5.00236C27.0478 5.26051 27.2811 5.4397 27.5503 5.48312L31.2773 6.05229C31.5922 6.09966 31.8555 6.32859 31.9597 6.64436C32.0579 6.96092 31.9732 7.30826 31.7422 7.53641L28.9376 10.331Z" fill="#FFAC60"/>
<path d="M45.9376 10.331C45.7434 10.5291 45.6541 10.8157 45.6984 11.0967L46.365 14.9806C46.4213 15.3098 46.2893 15.643 46.0276 15.8332C45.7711 16.0306 45.4299 16.0543 45.1502 15.8964L41.8289 14.0728C41.7134 14.0081 41.5852 13.9733 41.4539 13.9694H41.2507C41.1802 13.9804 41.1112 14.0041 41.0482 14.0404L37.7262 15.8727C37.5619 15.9595 37.376 15.9903 37.1937 15.9595C36.7498 15.8711 36.4536 15.4259 36.5263 14.9562L37.1937 11.0722C37.238 10.7888 37.1487 10.5007 36.9545 10.2994L34.2466 7.53641C34.0202 7.30511 33.9414 6.95776 34.0449 6.64436C34.1454 6.33175 34.4019 6.10361 34.7116 6.05229L38.4386 5.48312C38.722 5.45233 38.971 5.27077 39.0985 5.00236L40.7408 1.45786C40.7798 1.37892 40.83 1.3063 40.8908 1.24472L40.9582 1.18946C40.9935 1.14841 41.034 1.11447 41.079 1.08684L41.1607 1.05526L41.2882 1H41.6039C41.8859 1.03079 42.1341 1.20841 42.2638 1.47365L43.9279 5.00236C44.0478 5.26051 44.2811 5.4397 44.5503 5.48312L48.2773 6.05229C48.5922 6.09966 48.8555 6.32859 48.9597 6.64436C49.0579 6.96092 48.9732 7.30826 48.7422 7.53641L45.9376 10.331Z" fill="#FFAC60"/>
<path d="M62.9376 10.331C62.7434 10.5291 62.6541 10.8157 62.6984 11.0967L63.365 14.9806C63.4213 15.3098 63.2893 15.643 63.0276 15.8332C62.7711 16.0306 62.4299 16.0543 62.1502 15.8964L58.8289 14.0728C58.7134 14.0081 58.5852 13.9733 58.4539 13.9694H58.2507C58.1802 13.9804 58.1112 14.0041 58.0482 14.0404L54.7262 15.8727C54.5619 15.9595 54.376 15.9903 54.1937 15.9595C53.7498 15.8711 53.4536 15.4259 53.5263 14.9562L54.1937 11.0722C54.238 10.7888 54.1487 10.5007 53.9545 10.2994L51.2466 7.53641C51.0202 7.30511 50.9414 6.95776 51.0449 6.64436C51.1454 6.33175 51.4019 6.10361 51.7116 6.05229L55.4386 5.48312C55.722 5.45233 55.971 5.27077 56.0985 5.00236L57.7408 1.45786C57.7798 1.37892 57.83 1.3063 57.8908 1.24472L57.9582 1.18946C57.9935 1.14841 58.034 1.11447 58.079 1.08684L58.1607 1.05526L58.2882 1H58.6039C58.8859 1.03079 59.1341 1.20841 59.2638 1.47365L60.9279 5.00236C61.0478 5.26051 61.2811 5.4397 61.5503 5.48312L65.2773 6.05229C65.5922 6.09966 65.8555 6.32859 65.9597 6.64436C66.0579 6.96092 65.9732 7.30826 65.7422 7.53641L62.9376 10.331Z" fill="#FFAC60"/>
<path d="M79.9376 10.331C79.7434 10.5291 79.6541 10.8157 79.6984 11.0967L80.365 14.9806C80.4213 15.3098 80.2893 15.643 80.0276 15.8332C79.7711 16.0306 79.4299 16.0543 79.1502 15.8964L75.8289 14.0728C75.7134 14.0081 75.5852 13.9733 75.4539 13.9694H75.2507C75.1802 13.9804 75.1112 14.0041 75.0482 14.0404L71.7262 15.8727C71.5619 15.9595 71.376 15.9903 71.1937 15.9595C70.7498 15.8711 70.4536 15.4259 70.5263 14.9562L71.1937 11.0722C71.238 10.7888 71.1487 10.5007 70.9545 10.2994L68.2466 7.53641C68.0202 7.30511 67.9414 6.95776 68.0449 6.64436C68.1454 6.33175 68.4019 6.10361 68.7116 6.05229L72.4386 5.48312C72.722 5.45233 72.971 5.27077 73.0985 5.00236L74.7408 1.45786C74.7798 1.37892 74.83 1.3063 74.8908 1.24472L74.9582 1.18946C74.9935 1.14841 75.034 1.11447 75.079 1.08684L75.1607 1.05526L75.2882 1H75.6039C75.8859 1.03079 76.1341 1.20841 76.2638 1.47365L77.9279 5.00236C78.0478 5.26051 78.2811 5.4397 78.5503 5.48312L82.2773 6.05229C82.5922 6.09966 82.8555 6.32859 82.9597 6.64436C83.0579 6.96092 82.9732 7.30826 82.7422 7.53641L79.9376 10.331Z" stroke="#FFAC60"/>
</svg>
