<svg width="14" height="15" viewBox="0 0 14 15" fill="none" xmlns="http://www.w3.org/2000/svg">
<path d="M5 2.6875C5 1.96289 5.67188 1.375 6.5 1.375H7.5C8.32812 1.375 9 1.96289 9 2.6875V12.3125C9 13.0371 8.32812 13.625 7.5 13.625H6.5C5.67188 13.625 5 13.0371 5 12.3125V2.6875ZM0 7.9375C0 7.21289 0.671875 6.625 1.5 6.625H2.5C3.32812 6.625 4 7.21289 4 7.9375V12.3125C4 13.0371 3.32812 13.625 2.5 13.625H1.5C0.671875 13.625 0 13.0371 0 12.3125V7.9375ZM11.5 3.125H12.5C13.3281 3.125 14 3.71289 14 4.4375V12.3125C14 13.0371 13.3281 13.625 12.5 13.625H11.5C10.6719 13.625 10 13.0371 10 12.3125V4.4375C10 3.71289 10.6719 3.125 11.5 3.125Z" fill="#433C5D"/>
</svg>
