<svg width="14" height="15" viewBox="0 0 14 15" fill="none" xmlns="http://www.w3.org/2000/svg">
<g clip-path="url(#clip0_5564_576)">
<path d="M7.06198 7.91563C7.38281 7.91563 7.62708 7.98945 7.80208 8.13711C8.15208 8.43516 8.15937 9.03125 7.79479 9.34297C7.61615 9.49609 7.36094 9.57539 7.02552 9.57539H6.04479V7.91563H7.06198V7.91563ZM13.7448 3.37109L10.1719 0.691406C10.0078 0.568359 9.78542 0.5 9.55208 0.5H9.33333V4H14V3.8332C14 3.66094 13.9089 3.49414 13.7448 3.37109ZM8.16667 4.21875V0.5H0.875C0.390104 0.5 0 0.792578 0 1.15625V13.8438C0 14.2074 0.390104 14.5 0.875 14.5H13.125C13.6099 14.5 14 14.2074 14 13.8438V4.875H9.04167C8.56042 4.875 8.16667 4.57969 8.16667 4.21875ZM10.099 8.73594C10.099 11.2051 6.86146 10.8578 6.04844 10.8578V12.4219C6.04844 12.6023 5.85156 12.75 5.61094 12.75H4.48802C4.2474 12.75 4.05052 12.6023 4.05052 12.4219V6.95859C4.05052 6.77812 4.2474 6.63047 4.48802 6.63047H7.44115C9.06354 6.63047 10.099 7.52734 10.099 8.73594Z" fill="#433C5D"/>
</g>
<defs>
<clipPath id="clip0_5564_576">
<rect width="14" height="14" fill="white" transform="translate(0 0.5)"/>
</clipPath>
</defs>
</svg>
