<svg width="14" height="15" viewBox="0 0 14 15" fill="none" xmlns="http://www.w3.org/2000/svg">
<g clip-path="url(#clip0_5564_590)">
<path d="M2.33333 0.5C1.04635 0.5 0 1.28477 0 2.25V12.75C0 13.7152 1.04635 14.5 2.33333 14.5H11.6667C12.9536 14.5 14 13.7152 14 12.75V4.875H9.33333C8.68802 4.875 8.16667 4.48398 8.16667 4V0.5H2.33333ZM9.33333 0.5V4H14L9.33333 0.5ZM4.08333 7.5H9.91667C10.2375 7.5 10.5 7.69687 10.5 7.9375C10.5 8.17813 10.2375 8.375 9.91667 8.375H4.08333C3.7625 8.375 3.5 8.17813 3.5 7.9375C3.5 7.69687 3.7625 7.5 4.08333 7.5ZM4.08333 9.25H9.91667C10.2375 9.25 10.5 9.44687 10.5 9.6875C10.5 9.92813 10.2375 10.125 9.91667 10.125H4.08333C3.7625 10.125 3.5 9.92813 3.5 9.6875C3.5 9.44687 3.7625 9.25 4.08333 9.25ZM4.08333 11H9.91667C10.2375 11 10.5 11.1969 10.5 11.4375C10.5 11.6781 10.2375 11.875 9.91667 11.875H4.08333C3.7625 11.875 3.5 11.6781 3.5 11.4375C3.5 11.1969 3.7625 11 4.08333 11Z" fill="#433C5D"/>
</g>
<defs>
<clipPath id="clip0_5564_590">
<rect width="14" height="14" fill="white" transform="translate(0 0.5)"/>
</clipPath>
</defs>
</svg>
