<svg width="14" height="13" viewBox="0 0 14 13" fill="none" xmlns="http://www.w3.org/2000/svg">
<g clip-path="url(#clip0_5564_586)">
<path d="M7.7 3.5C7.7 5.15703 6.44656 6.5 4.9 6.5C3.35344 6.5 2.1 5.15703 2.1 3.5C2.1 1.84297 3.35344 0.5 4.9 0.5C6.44656 0.5 7.7 1.84297 7.7 3.5ZM0 11.8039C0 9.49531 1.74563 7.625 3.90031 7.625H5.89969C8.05438 7.625 9.8 9.49531 9.8 11.8039C9.8 12.1883 9.50906 12.5 9.15031 12.5H0.649688C0.290938 12.5 0 12.1883 0 11.8039ZM13.3284 12.5H10.3119C10.43 12.2797 10.5 12.0242 10.5 11.75V11.5625C10.5 10.1398 9.90719 8.8625 8.97313 8.00469C9.02563 8.00234 9.07594 8 9.12844 8H10.4716C12.4206 8 14 9.69219 14 11.7805C14 12.1789 13.6981 12.5 13.3284 12.5ZM9.45 6.5C8.77187 6.5 8.15938 6.20469 7.71531 5.72891C8.14625 5.10547 8.4 4.33437 8.4 3.5C8.4 2.87188 8.25563 2.27891 7.99969 1.75859C8.40656 1.43984 8.9075 1.25 9.45 1.25C10.8041 1.25 11.9 2.42422 11.9 3.875C11.9 5.32578 10.8041 6.5 9.45 6.5Z" fill="#433C5D"/>
</g>
<defs>
<clipPath id="clip0_5564_586">
<rect width="14" height="12" fill="white" transform="translate(0 0.5)"/>
</clipPath>
</defs>
</svg>
