<svg width="18" height="19" viewBox="0 0 18 19" fill="none" xmlns="http://www.w3.org/2000/svg">
<g clip-path="url(#clip0_5564_596)">
<path d="M12.7088 0.542513C12.8846 0.616341 13.0112 0.774544 13.0463 0.960872L13.7459 4.75423L17.5393 5.45032C17.7256 5.48548 17.8838 5.61204 17.9576 5.78782C18.0315 5.96361 18.0104 6.164 17.9014 6.3222L15.7112 9.50032L17.9014 12.6749C18.0104 12.8331 18.0315 13.0335 17.9576 13.2093C17.8838 13.3851 17.7256 13.5117 17.5393 13.5468L13.7459 14.2464L13.0463 18.0398C13.0112 18.2261 12.8846 18.3843 12.7088 18.4581C12.533 18.532 12.3326 18.5109 12.1744 18.4019L8.99984 16.2117L5.82523 18.4019C5.66702 18.5109 5.46663 18.532 5.29085 18.4581C5.11507 18.3843 4.98851 18.2261 4.95335 18.0398L4.25374 14.2464L0.460384 13.5468C0.274056 13.5117 0.115852 13.3851 0.0420243 13.2093C-0.0318038 13.0335 -0.0107101 12.8331 0.0982743 12.6749L2.28851 9.50032L0.0982743 6.32572C-0.0107101 6.16751 -0.0318038 5.96712 0.0420243 5.79134C0.115852 5.61556 0.274056 5.489 0.460384 5.45384L4.25374 4.75423L4.95335 0.960872C4.98851 0.774544 5.11507 0.616341 5.29085 0.542513C5.46663 0.468684 5.66702 0.489778 5.82523 0.598763L8.99984 2.789L12.1744 0.598763C12.3326 0.489778 12.533 0.468684 12.7088 0.542513V0.542513ZM12.3748 9.50032C12.3748 11.3636 10.8631 12.8753 8.99984 12.8753C7.13656 12.8753 5.62484 11.3636 5.62484 9.50032C5.62484 7.63704 7.13656 6.12532 8.99984 6.12532C10.8631 6.12532 12.3748 7.63704 12.3748 9.50032ZM13.4998 9.50032C13.4998 7.01478 11.4854 5.00032 8.99984 5.00032C6.51429 5.00032 4.49984 7.01478 4.49984 9.50032C4.49984 11.9859 6.51429 14.0003 8.99984 14.0003C11.4854 14.0003 13.4998 11.9859 13.4998 9.50032Z" fill="#7466F1"/>
</g>
<defs>
<clipPath id="clip0_5564_596">
<rect width="18" height="18" fill="white" transform="translate(0 0.5)"/>
</clipPath>
</defs>
</svg>
