<svg width="14" height="15" viewBox="0 0 14 15" fill="none" xmlns="http://www.w3.org/2000/svg">
<g clip-path="url(#clip0_5564_570)">
<path d="M6.99996 12.75C10.8664 12.75 14 10.2043 14 7.0625C14 3.9207 10.8664 1.375 6.99996 1.375C3.13355 1.375 -4.42328e-05 3.9207 -4.42328e-05 7.0625C-4.42328e-05 8.2957 0.48394 9.43594 1.30425 10.3684C1.2523 11.0383 0.992534 11.6344 0.719096 12.0883C0.568706 12.3398 0.415581 12.5422 0.303471 12.6789C0.24605 12.7473 0.2023 12.7992 0.169487 12.8348C0.153081 12.8512 0.142143 12.8648 0.13394 12.873L0.125737 12.8813C-4.42322e-05 13.007 -0.0355911 13.193 0.0327683 13.357C0.101128 13.5211 0.259721 13.6277 0.437456 13.6277C1.22222 13.6277 2.01246 13.3844 2.66871 13.1C3.29488 12.8266 3.82808 12.5012 4.15347 12.2633C5.023 12.5777 5.9855 12.7527 6.99996 12.7527V12.75ZM3.49996 7.9375C3.01597 7.9375 2.62496 7.54648 2.62496 7.0625C2.62496 6.57852 3.01597 6.1875 3.49996 6.1875C3.98394 6.1875 4.37496 6.57852 4.37496 7.0625C4.37496 7.54648 3.98394 7.9375 3.49996 7.9375ZM6.99996 7.9375C6.51597 7.9375 6.12496 7.54648 6.12496 7.0625C6.12496 6.57852 6.51597 6.1875 6.99996 6.1875C7.48394 6.1875 7.87496 6.57852 7.87496 7.0625C7.87496 7.54648 7.48394 7.9375 6.99996 7.9375ZM11.375 7.0625C11.375 7.54648 10.9839 7.9375 10.5 7.9375C10.016 7.9375 9.62496 7.54648 9.62496 7.0625C9.62496 6.57852 10.016 6.1875 10.5 6.1875C10.9839 6.1875 11.375 6.57852 11.375 7.0625Z" fill="#433C5D"/>
</g>
<defs>
<clipPath id="clip0_5564_570">
<rect width="14" height="14" fill="white" transform="translate(0 0.5)"/>
</clipPath>
</defs>
</svg>
