<svg width="14" height="15" viewBox="0 0 14 15" fill="none" xmlns="http://www.w3.org/2000/svg">
<g clip-path="url(#clip0_5564_582)">
<path d="M7 7.5C9.20937 7.5 11 5.9332 11 4C11 2.0668 9.20937 0.5 7 0.5C4.79063 0.5 3 2.0668 3 4C3 5.9332 4.79063 7.5 7 7.5ZM5.57188 8.8125C2.49375 8.8125 0 10.9945 0 13.6879C0 14.1363 0.415625 14.5 0.928125 14.5H13.0719C13.5844 14.5 14 14.1363 14 13.6879C14 10.9945 11.5063 8.8125 8.42813 8.8125H5.57188Z" fill="#433C5D"/>
</g>
<defs>
<clipPath id="clip0_5564_582">
<rect width="14" height="14" fill="white" transform="translate(0 0.5)"/>
</clipPath>
</defs>
</svg>
