<svg width="30" height="30" viewBox="0 0 30 30" fill="none" xmlns="http://www.w3.org/2000/svg">
<circle cx="15" cy="15" r="15" fill="#F7F7F7"/>
<g clip-path="url(#clip0_5564_421)">
<path d="M10.7344 11.0625C10.1909 11.0625 9.75 11.5034 9.75 12.0469C9.75 12.3565 9.89561 12.6478 10.1438 12.8344L14.6063 16.1813C14.84 16.3556 15.16 16.3556 15.3938 16.1813L19.8562 12.8344C20.1044 12.6478 20.25 12.3565 20.25 12.0469C20.25 11.5034 19.8091 11.0625 19.2656 11.0625H10.7344ZM9.75 13.3594V17.625C9.75 18.3489 10.3386 18.9375 11.0625 18.9375H18.9375C19.6614 18.9375 20.25 18.3489 20.25 17.625V13.3594L15.7875 16.7063C15.3199 17.0569 14.6801 17.0569 14.2125 16.7063L9.75 13.3594Z" fill="#7466F1"/>
</g>
<defs>
<clipPath id="clip0_5564_421">
<rect width="10.5" height="10.5" fill="white" transform="translate(9.75 9.75)"/>
</clipPath>
</defs>
</svg>
