<svg width="16" height="19" viewBox="0 0 16 19" fill="none" xmlns="http://www.w3.org/2000/svg">
<g clip-path="url(#clip0_5564_598)">
<path d="M9.3125 1.625C4.16667 1.625 0 5.15117 0 9.5C0 13.8488 4.16667 17.375 9.3125 17.375C11.8375 17.375 14.125 16.5242 15.8042 15.1461C16.0125 14.9738 16.0667 14.7066 15.9333 14.4887C15.8 14.2707 15.5125 14.1477 15.225 14.1898C14.8167 14.2496 14.4 14.2812 13.9708 14.2812C9.93333 14.2812 6.65833 11.5109 6.65833 8.09375C6.65833 5.78047 8.15833 3.76602 10.3792 2.7043C10.6333 2.58125 10.7625 2.33516 10.7 2.09609C10.6375 1.85703 10.3958 1.67773 10.1042 1.65664C9.84167 1.63906 9.57917 1.62852 9.3125 1.62852V1.625Z" fill="#433C5D"/>
</g>
<defs>
<clipPath id="clip0_5564_598">
<rect width="16" height="18" fill="white" transform="translate(0 0.5)"/>
</clipPath>
</defs>
</svg>
