<svg width="14" height="15" viewBox="0 0 14 15" fill="none" xmlns="http://www.w3.org/2000/svg">
<g clip-path="url(#clip0_5564_572)">
<path d="M3 1.375V2.25H1.5C0.671875 2.25 0 2.83789 0 3.5625V4.875H14V3.5625C14 2.83789 13.3281 2.25 12.5 2.25H11V1.375C11 0.891016 10.5531 0.5 10 0.5C9.44687 0.5 9 0.891016 9 1.375V2.25H5V1.375C5 0.891016 4.55313 0.5 4 0.5C3.44687 0.5 3 0.891016 3 1.375ZM14 5.75H0V13.1875C0 13.9121 0.671875 14.5 1.5 14.5H12.5C13.3281 14.5 14 13.9121 14 13.1875V5.75Z" fill="#433C5D"/>
</g>
<defs>
<clipPath id="clip0_5564_572">
<rect width="14" height="14" fill="white" transform="translate(0 0.5)"/>
</clipPath>
</defs>
</svg>
