<svg width="14" height="15" viewBox="0 0 14 15" fill="none" xmlns="http://www.w3.org/2000/svg">
<g clip-path="url(#clip0_5564_588)">
<path d="M12.7559 2.78897L7.50586 0.601467C7.34594 0.535125 7.1745 0.500977 7.00137 0.500977C6.82823 0.500977 6.6568 0.535125 6.49688 0.601467L1.24687 2.78897C0.757422 2.99131 0.4375 3.46983 0.4375 4.00029C0.4375 9.42803 3.56836 13.1796 6.49414 14.3991C6.8168 14.5331 7.18047 14.5331 7.50312 14.3991C9.84648 13.4229 13.5625 10.0515 13.5625 4.00029C13.5625 3.46983 13.2426 2.99131 12.7559 2.78897ZM7.00273 12.7038L7 2.28584L11.8098 4.29014C11.7195 8.42998 9.56484 11.4296 7.00273 12.7038V12.7038Z" fill="#433C5D"/>
</g>
<defs>
<clipPath id="clip0_5564_588">
<rect width="14" height="14" fill="white" transform="translate(0 0.5)"/>
</clipPath>
</defs>
</svg>
