<svg width="14" height="15" viewBox="0 0 14 15" fill="none" xmlns="http://www.w3.org/2000/svg">
<g clip-path="url(#clip0_5564_584)">
<path d="M0 1.15625C0 0.792578 0.260069 0.5 0.583333 0.5H1.68924C2.22396 0.5 2.69792 0.85 2.9191 1.375H12.9087C13.5479 1.375 14.0146 2.05859 13.8469 2.75313L12.8503 6.91758C12.6438 7.77617 11.951 8.375 11.1611 8.375H4.14896L4.28021 9.1543C4.33368 9.46328 4.57431 9.6875 4.85382 9.6875H11.8611C12.1844 9.6875 12.4444 9.98008 12.4444 10.3438C12.4444 10.7074 12.1844 11 11.8611 11H4.85382C4.01285 11 3.29097 10.3273 3.13542 9.40039L1.88125 1.99023C1.86424 1.88633 1.78403 1.8125 1.68924 1.8125H0.583333C0.260069 1.8125 0 1.51992 0 1.15625ZM3.11111 13.1875C3.11111 13.0151 3.14129 12.8445 3.19992 12.6852C3.25855 12.526 3.34448 12.3813 3.45282 12.2594C3.56115 12.1375 3.68977 12.0409 3.83131 11.9749C3.97286 11.9089 4.12457 11.875 4.27778 11.875C4.43099 11.875 4.5827 11.9089 4.72424 11.9749C4.86579 12.0409 4.9944 12.1375 5.10274 12.2594C5.21107 12.3813 5.29701 12.526 5.35564 12.6852C5.41427 12.8445 5.44444 13.0151 5.44444 13.1875C5.44444 13.3599 5.41427 13.5305 5.35564 13.6898C5.29701 13.849 5.21107 13.9937 5.10274 14.1156C4.9944 14.2375 4.86579 14.3341 4.72424 14.4001C4.5827 14.4661 4.43099 14.5 4.27778 14.5C4.12457 14.5 3.97286 14.4661 3.83131 14.4001C3.68977 14.3341 3.56115 14.2375 3.45282 14.1156C3.34448 13.9937 3.25855 13.849 3.19992 13.6898C3.14129 13.5305 3.11111 13.3599 3.11111 13.1875V13.1875ZM11.2778 11.875C11.5872 11.875 11.8839 12.0133 12.1027 12.2594C12.3215 12.5056 12.4444 12.8394 12.4444 13.1875C12.4444 13.5356 12.3215 13.8694 12.1027 14.1156C11.8839 14.3617 11.5872 14.5 11.2778 14.5C10.9684 14.5 10.6716 14.3617 10.4528 14.1156C10.234 13.8694 10.1111 13.5356 10.1111 13.1875C10.1111 12.8394 10.234 12.5056 10.4528 12.2594C10.6716 12.0133 10.9684 11.875 11.2778 11.875Z" fill="#433C5D"/>
</g>
<defs>
<clipPath id="clip0_5564_584">
<rect width="14" height="14" fill="white" transform="translate(0 0.5)"/>
</clipPath>
</defs>
</svg>
