<svg width="14" height="15" viewBox="0 0 14 15" fill="none" xmlns="http://www.w3.org/2000/svg">
<g clip-path="url(#clip0_5564_578)">
<path d="M12.25 0.5H1.75C0.783854 0.5 0 1.08789 0 1.8125V13.1875C0 13.9121 0.783854 14.5 1.75 14.5H12.25C13.2161 14.5 14 13.9121 14 13.1875V1.8125C14 1.08789 13.2161 0.5 12.25 0.5ZM5.25 1.375H8.75C9.07083 1.375 9.33333 1.57187 9.33333 1.8125C9.33333 2.05313 9.07083 2.25 8.75 2.25H5.25C4.92917 2.25 4.66667 2.05313 4.66667 1.8125C4.66667 1.57187 4.92917 1.375 5.25 1.375ZM7 4.875C8.28698 4.875 9.33333 5.65977 9.33333 6.625C9.33333 7.59023 8.28698 8.375 7 8.375C5.71302 8.375 4.66667 7.59023 4.66667 6.625C4.66667 5.65977 5.71302 4.875 7 4.875ZM11.0833 11.35C11.0833 11.6398 10.7187 11.875 10.2667 11.875H3.73333C3.28125 11.875 2.91667 11.6398 2.91667 11.35V10.825C2.91667 9.95547 4.01406 9.25 5.36667 9.25H5.54896C5.9974 9.38945 6.48594 9.46875 7 9.46875C7.51406 9.46875 8.00625 9.38945 8.45104 9.25H8.63333C9.98594 9.25 11.0833 9.95547 11.0833 10.825V11.35Z" fill="#433C5D"/>
</g>
<defs>
<clipPath id="clip0_5564_578">
<rect width="14" height="14" fill="white" transform="translate(0 0.5)"/>
</clipPath>
</defs>
</svg>
